<svg xmlns="http://www.w3.org/2000/svg" width="106.57" height="88" viewBox="0 0 106.57 88">
    <g id="Group_18" data-name="Group 18" transform="translate(402.5 -923.5)">
        <g id="empty-post-types" transform="translate(-403.215 923.5)">
            <rect id="Rectangle_14" data-name="Rectangle 14" width="87" height="87" rx="7.5" transform="translate(1.215 0.5)" fill="#f9fafb" stroke="#eaecf0" stroke-width="1"/>
            <rect id="Rectangle_15" data-name="Rectangle 15" width="72" height="16" rx="4" transform="translate(8.715 8)" fill="#eaecf0"/>
            <rect id="Rectangle_16" data-name="Rectangle 16" width="71" height="31" rx="3.5" transform="translate(9.215 30.5)" fill="none" stroke="#c6cbd3" stroke-width="1" stroke-dasharray="3 3"/>
            <g id="Group_17" data-name="Group 17">
                <rect id="Rectangle_17" data-name="Rectangle 17" width="72" height="33" rx="4" transform="translate(35.285 41.113)" fill="#c6cbd3"/>
                <rect id="Rectangle_18" data-name="Rectangle 18" width="71" height="32" rx="3.5" transform="translate(35.785 41.613)" fill="none" stroke="#98a2b3" stroke-width="1"/>
            </g>
        </g>
        <path id="cloud_download_24dp_E8EAED_FILL0_wght300_GRAD-25_opsz24" d="M75.483-750.082a6.71,6.71,0,0,1-4.887-1.985,6.548,6.548,0,0,1-2.017-4.853,6.868,6.868,0,0,1,1.652-4.525,6.353,6.353,0,0,1,4.192-2.313,8.988,8.988,0,0,1,2.76-4.825A7.066,7.066,0,0,1,82.2-770.81a1.924,1.924,0,0,1,1.4.58,1.891,1.891,0,0,1,.588,1.4v9.528s.409-.365,1.63-1.586,2.49.3,1.394,1.394-4.021,4.01-4.021,4.01-2.945-2.951-4-4.01a.994.994,0,1,1,1.394-1.394c1.051,1.087,1.619,1.586,1.619,1.586v-9.488a6.359,6.359,0,0,0-4.36,2.439,7.1,7.1,0,0,0-1.668,4.483h-.7a4.768,4.768,0,0,0-3.481,1.428,4.7,4.7,0,0,0-1.442,3.474,4.714,4.714,0,0,0,1.436,3.474,4.743,4.743,0,0,0,3.47,1.428H92.332a3.409,3.409,0,0,0,2.5-1.019,3.388,3.388,0,0,0,1.024-2.5,3.361,3.361,0,0,0-1.027-2.488,3.444,3.444,0,0,0-2.516-1.014h-2.1v-2.784a6.689,6.689,0,0,0-.816-3.275,9.487,9.487,0,0,0-2.152-2.455c-.431-.394-1.129-.853-1.129-1.427a.887.887,0,0,1,1.129-.87,8.949,8.949,0,0,1,3.635,3.286,9.005,9.005,0,0,1,1.338,4.741v.807h.437a5.189,5.189,0,0,1,3.685,1.7,5.346,5.346,0,0,1,1.5,3.785,5.308,5.308,0,0,1-1.6,3.9,5.315,5.315,0,0,1-3.908,1.6H75.483ZM83.212-761.449Z" transform="translate(-414.274 1741.919)" fill="#f9fafb"/>
    </g>
</svg>