<svg fill="none" height="24" viewBox="0 0 25 24" width="25" xmlns="http://www.w3.org/2000/svg"><path d="m12.5 6.60938c-3 0-5.39062 2.4375-5.39062 5.39062 0 3 2.39062 5.3906 5.39062 5.3906 2.9531 0 5.3906-2.3906 5.3906-5.3906 0-2.95312-2.4375-5.39062-5.3906-5.39062zm0 8.90622c-1.9219 0-3.51562-1.5468-3.51562-3.5156 0-1.9219 1.54682-3.46875 3.51562-3.46875 1.9219 0 3.4688 1.54685 3.4688 3.46875 0 1.9688-1.5469 3.5156-3.4688 3.5156zm6.8438-9.09372c0 .70312-.5626 1.26562-1.2657 1.26562s-1.2656-.5625-1.2656-1.26562c0-.70313.5625-1.26563 1.2656-1.26563s1.2657.5625 1.2657 1.26563zm3.5624 1.26562c-.0937-1.6875-.4687-3.1875-1.6874-4.40625-1.2188-1.21875-2.7188-1.59375-4.4063-1.6875-1.7344-.09375-6.9375-.09375-8.67188 0-1.6875.09375-3.14062.46875-4.40624 1.6875-1.21876 1.21875-1.59376 2.71875-1.6875 4.40625-.09376 1.73438-.09376 6.9375 0 8.6719.09374 1.6875.46874 3.1406 1.6875 4.4062 1.26562 1.2188 2.71874 1.5938 4.40624 1.6875 1.73438.0938 6.93748.0938 8.67188 0 1.6875-.0937 3.1875-.4687 4.4063-1.6875 1.2187-1.2656 1.5937-2.7187 1.6874-4.4062.0938-1.7344.0938-6.93752 0-8.6719zm-2.25 10.5c-.3281.9375-1.0781 1.6406-1.9687 2.0156-1.4063.5625-4.6875.4219-6.1875.4219-1.5469 0-4.82812.1406-6.1875-.4219-.9375-.375-1.64062-1.0781-2.01562-2.0156-.5625-1.3594-.42188-4.6406-.42188-6.1875 0-1.5-.14062-4.78125.42188-6.1875.375-.89062 1.07812-1.59375 2.01562-1.96875 1.35938-.5625 4.6406-.42187 6.1875-.42187 1.5 0 4.7812-.14063 6.1875.42187.8906.32813 1.5937 1.07813 1.9687 1.96875.5626 1.40625.4219 4.6875.4219 6.1875 0 1.5469.1407 4.8281-.4219 6.1875z" fill="#fff"/></svg>