<svg width="22" height="21" viewBox="0 0 22 21" fill="none" xmlns="http://www.w3.org/2000/svg">
<path d="M5.1875 20.9739H0.828125V6.95826H5.1875V20.9739ZM2.98438 5.08326C1.625 5.08326 0.5 3.91139 0.5 2.50514C0.5 0.583263 2.5625 -0.635487 4.25 0.348888C5.04688 0.770763 5.51562 1.61451 5.51562 2.50514C5.51562 3.91139 4.39062 5.08326 2.98438 5.08326ZM17.1406 20.9739V14.177C17.1406 12.5364 17.0938 10.4739 14.8438 10.4739C12.5938 10.4739 12.2656 12.2083 12.2656 14.0364V20.9739H7.90625V6.95826H12.0781V8.88014H12.125C12.7344 7.80201 14.1406 6.63014 16.25 6.63014C20.6562 6.63014 21.5 9.53639 21.5 13.2864V20.9739H17.1406Z" fill="white"/>
</svg>
