<svg xmlns="http://www.w3.org/2000/svg" width="845.259" height="787.813" viewBox="0 0 845.259 787.813" fill="currentColor">
    <g id="Group_1419" data-name="Group 1419" transform="translate(4933.5 -10198.5)">
        <path id="Path_581" data-name="Path 581" d="M599.567,322.811c15.252,2.448,23.8,13.021,30.821,25.046,18.513,31.7,36.673,63.6,55.121,95.337,20.761,35.713,41.809,71.259,62.5,107.013,18.641,32.214,36.98,64.6,55.425,96.93,6.418,11.249,12.988,22.42,19.085,33.842,21.058,39.457-2.937,83.009-45.2,90.48-9.876,1.746-20.2,1.258-30.322,1.263q-173.817.1-347.635.09c-14.229.016-27.947-1.042-40.347-8.96-16.1-10.283-26.271-24.572-29.9-43.884H316.223c-72.255,0-144.51-.159-216.764.1-24.9.088-46.035-8.469-64.463-24.811C15.76,678.2,4.439,656.88.231,631.675c-.459-2.751-.092-5.641-.092-8.467Q.133,360.976.184,98.744C.2,75.836,8.74,55.753,22.9,38.1,38.719,18.376,58.734,5.2,84.16,1.383A116.831,116.831,0,0,1,101.389.131C233.912.081,366.435.353,498.957,0c43.777-.117,79.706,27.986,94.173,64.37a92.649,92.649,0,0,1,6.46,34.573q-.093,110.388-.023,220.776ZM50.184,359.5h-.1c0,60.933-.1,121.866.045,182.8.067,27.9.083,55.814,1.179,83.681.534,13.594,8.02,24.522,18.9,32.71,10.1,7.606,21.807,8.837,34.133,8.806,78.409-.2,156.819-.05,235.228-.215,2.05,0,4.746-1.82,6.007-3.595,2.624-3.7,4.393-7.984,6.678-11.934,22.068-38.142,44.264-76.211,66.236-114.409C439.77,500.353,460.761,463.2,482,426.186c15.01-26.152,30.32-52.132,45.306-78.3,5.359-9.357,11.636-17.642,21.144-23.183,1.156-.674,2.058-2.821,2.06-4.286q.135-108.381-.006-216.764c-.029-13.93-4.971-26.219-14.414-36.639-12.18-13.441-27.542-18.337-45.33-18.306-92.386.161-184.772.015-277.158.074-38.117.024-76.237.025-114.349.543-26.285.36-48.683,24.554-48.853,50.961-.566,86.4-.213,172.809-.213,259.215M578.843,722.679v.037H704.182c21.639,0,43.278.031,64.916-.041,8.707-.029,14.024-6.331,12.169-14.7-.613-2.768-2.4-5.324-3.868-7.848-15.959-27.4-32.037-54.731-47.93-82.168C712.319,588.347,695.4,558.61,678.252,529c-15.82-27.327-31.829-54.546-47.7-81.844-14.672-25.231-29.166-50.567-44.068-75.66-1.5-2.535-5.095-4.694-8.063-5.284-3.852-.765-6.471,2.311-8.308,5.74-3.469,6.478-6.979,12.938-10.668,19.292-15.545,26.774-31.234,53.464-46.732,80.266-14.473,25.03-28.729,50.186-43.158,75.242q-25.35,44.021-50.839,87.96Q401.048,665.2,383.29,695.644c-1.8,3.1-3.4,6.325-5.081,9.495-4.832,9.1,2.5,17.691,11.378,17.66,63.084-.225,126.17-.12,189.256-.12" transform="translate(-4926 10206)"/>
        <path id="Path_581_-_Outline" data-name="Path 581 - Outline" d="M430.965,780.313c-10.669,0-21.3,0-31.995,0-13.673,0-29.434-.843-43.992-10.139-16.327-10.428-27.017-24.775-31.842-42.705l-66.653-.024q-78.5-.047-157,.124c-26.379.087-49.1-8.64-69.466-26.7C9.894,683.022-2.618,660.158-7.167,632.91a35.218,35.218,0,0,1-.258-7.379l.064-2.323q-.006-262.232.045-524.465C-7.3,75.524.9,53.543,17.05,33.407c17.868-22.279,40.073-35.549,66-39.441A124.8,124.8,0,0,1,101.4-7.369q67.574-.025,135.174.023,131.182.059,262.363-.154c44.036-.118,84.682,27.651,101.162,69.1A99.731,99.731,0,0,1,607.09,98.99Q607,207.9,607.065,316.882c14.844,4.645,23.373,16.186,29.8,27.193q15.305,26.207,30.4,52.537,12.337,21.422,24.731,42.812,13.868,23.856,27.851,47.647,17.383,29.657,34.656,59.379,20.805,35.954,41.277,72.1l18.832,33c4.933,8.583,9.866,17.168,14.526,25.9,10.789,20.215,11.486,43.094,1.913,62.771-9.931,20.414-29.039,34.492-52.424,38.626-8.771,1.551-17.628,1.477-26.192,1.407L747,780.222Q588.99,780.313,430.965,780.313Zm-31.612-15q173.829.01,347.639-.09l5.564.03c8.25.068,16.042.133,23.457-1.178,18.6-3.288,33.742-14.374,41.547-30.417,7.556-15.531,6.967-32.985-1.658-49.146-4.586-8.591-9.443-17.039-14.3-25.486l-4.685-8.17-14.178-24.882q-20.53-36.053-41.225-72.008-17.2-29.717-34.614-59.307-13.967-23.83-27.878-47.693-12.439-21.4-24.762-42.865-15.122-26.26-30.352-52.459c-6.7-11.475-13.605-19.509-25.533-21.423l-6.311-1.013v-9.484q-.07-110.386.023-220.782a84.828,84.828,0,0,0-5.937-31.815C571.936,31.367,536.9,7.4,498.977,7.5q-131.2.349-262.41.154-67.588-.03-135.176-.023A109.755,109.755,0,0,0,85.255,8.8C62.889,12.16,44.4,23.279,28.751,42.792,14.786,60.2,7.7,79.029,7.684,98.749q-.051,262.225-.045,524.459c0,.968-.037,1.943-.075,2.917a23.5,23.5,0,0,0,.065,4.315c4.025,24.109,14.6,43.476,32.343,59.2,17.483,15.5,36.934,22.992,59.461,22.923q78.529-.282,157.06-.124l78.845.024,1.149,6.115c3.159,16.808,11.848,29.548,26.566,38.948C373.234,764.033,384.5,765.33,399.353,765.312ZM389.54,730.3a20.664,20.664,0,0,1-17.692-9.774,18.782,18.782,0,0,1-.262-18.9l1.432-2.736c1.226-2.357,2.455-4.714,3.787-7.007q17.764-30.454,35.423-60.926,25.486-43.933,50.829-87.942,9.59-16.652,19.111-33.344,11.993-20.975,24.054-41.91,13.27-22.948,26.663-45.823l20.075-34.455c3.646-6.28,7.114-12.665,10.542-19.067,5.4-10.073,12.579-10.311,16.381-9.556,4.422.879,10.173,3.947,13.057,8.821,10.392,17.5,20.591,35.125,30.791,52.751l13.306,22.958,20.139,34.525q13.816,23.648,27.569,47.331,12.848,22.184,25.582,44.434,12.788,22.277,25.634,44.524,14.481,25,29.1,49.922l19.609,33.55a28.979,28.979,0,0,1,3.922,8.681c1.376,6.21.148,12.115-3.46,16.626-3.694,4.618-9.378,7.174-16.006,7.2q-24.964.083-49.928.044l-186.034-.053q-71.774-.029-143.547.132ZM577.778,373.824a11.471,11.471,0,0,0-1.054,1.67c-3.509,6.553-7.061,13.088-10.793,19.516l-20.093,34.485q-13.347,22.867-26.632,45.77-12.076,20.884-24.017,41.847-9.55,16.7-19.134,33.383Q450.7,594.526,425.2,638.475q-17.671,30.493-35.435,60.948c-1.208,2.08-2.325,4.233-3.444,6.385l-1.49,2.845a3.935,3.935,0,0,0-.146,4.121,5.75,5.75,0,0,0,4.872,2.525q71.8-.256,143.606-.132l45.677.012v.037l140.356,0q24.937.009,49.874-.044a5.538,5.538,0,0,0,4.342-1.565,4.847,4.847,0,0,0,.529-4.012,18.084,18.084,0,0,0-2.118-4.172l-.911-1.528-18.806-32.2q-14.6-24.968-29.131-49.975-12.89-22.256-25.663-44.574-12.749-22.209-25.554-44.386-13.707-23.677-27.539-47.281l-20.154-34.552L610.746,427.94c-10.171-17.578-20.342-35.155-30.711-52.615A6.22,6.22,0,0,0,577.778,373.824ZM103.876,675c-12.78,0-26.22-1.309-38.18-10.315-13.734-10.336-21.3-23.617-21.882-38.407-1.052-26.747-1.115-53.909-1.176-80.178l-.009-3.779q-.155-64.916-.062-129.83L42.584,352h.1l-.049-64.43c-.07-61.4-.142-124.883.267-187.333.2-30.708,26.483-58,56.25-58.411,36.538-.5,73.669-.519,109.576-.541l4.871,0,110.978-.005q83.086.021,166.172-.069c21.56-.038,38.2,6.756,50.9,20.77,10.821,11.94,16.324,25.956,16.356,41.66q.141,108.4.006,216.789c0,3.56-1.816,8.444-5.782,10.756-7.062,4.116-12.568,10.226-18.413,20.431q-11.7,20.431-23.577,40.761-10.9,18.753-21.733,37.545Q473.8,455.548,459.2,481.237q-17.061,29.947-34.207,59.847-21,36.507-42.181,72.911l-24.064,41.514c-.79,1.365-1.511,2.776-2.234,4.184a66.312,66.312,0,0,1-4.818,8.333c-2.314,3.257-7.092,6.756-12.125,6.756q-55.7.117-111.427.093-61.891.013-123.781.122ZM57.584,359.5l-.017,52.995q-.031,64.893.062,129.787l.009,3.78c.061,26.132.123,53.154,1.164,79.624.4,10.28,5.759,19.368,15.916,27.012,8.1,6.1,17.691,7.328,29.6,7.3q61.908-.158,123.816-.122,55.629-.011,111.255-.093c-.41-.027-.046-.3.1-.475a52.945,52.945,0,0,0,3.68-6.466c.837-1.631,1.678-3.261,2.593-4.843l24.073-41.53q21.122-36.405,42.154-72.863,17.172-29.85,34.176-59.793,14.639-25.694,29.33-51.358,10.818-18.849,21.775-37.617,11.808-20.313,23.528-40.677c4.585-8.006,11.214-17.954,22.214-24.925q.133-107.781-.007-215.571A46.037,46.037,0,0,0,530.533,72.05c-9.822-10.839-22.451-15.873-39.76-15.842q-83.1.145-166.2.069l-115.836.008c-35.86.022-72.941.044-109.381.539-21.936.3-41.308,20.632-41.455,43.51-.409,62.394-.337,125.851-.267,187.219l.054,71.948h-.1Z" transform="translate(-4926 10206)"/>
        <path id="Path_582" data-name="Path 582" d="M254,148.177H375.082c10.391,0,16.266,7.914,16.055,21.815a108.5,108.5,0,0,1-.745,13.187c-1.141,8.2-7.218,13.726-13.971,13.89-11.457.279-22.921.077-34.383.077H132c-9.878,0-16.078-8.015-15.9-21.138.075-5.648.143-11.684,1.623-16.818,2.245-7.8,7.433-11.012,13.695-11.009q61.29.03,122.58,0" transform="translate(-4902 10206)"/>
        <path id="Path_582_-_Outline" data-name="Path 582 - Outline" d="M362.372,202.217c-3.4,0-6.793-.018-10.19-.035l-10.144-.035H132a19.189,19.189,0,0,1-14-5.659c-4.63-4.694-7.014-11.8-6.894-20.547.078-5.884.164-12.4,1.818-18.135,2.676-9.3,9.457-14.638,18.5-14.624q61.288.03,122.575,0l0,9.492v-9.5H375.082a19.445,19.445,0,0,1,14.232,5.621c4.6,4.674,6.962,12.029,6.822,21.27a113.259,113.259,0,0,1-.778,13.7c-1.448,10.419-9.355,18.073-18.815,18.3C371.82,202.183,367.1,202.217,362.372,202.217ZM131.407,153.181c-4.608,0-7.429,2.349-8.881,7.392-1.282,4.447-1.356,10-1.427,15.361-.083,6.069,1.343,10.824,4.012,13.53A9.285,9.285,0,0,0,132,192.146H342.038l10.2.035c8.023.042,16.046.084,24.065-.111,4.54-.11,8.384-4.139,9.14-9.58a103.627,103.627,0,0,0,.7-12.476c.1-6.6-1.266-11.476-3.947-14.2a9.441,9.441,0,0,0-7.108-2.638H254v0q-61.293.03-122.585,0Z" transform="translate(-4902 10206)"/>
        <path id="Path_583" data-name="Path 583" d="M224.894,438.105c-30.774,0-61.552-.4-92.32.181-13.625.255-18.813-16.473-17-30.747,1.642-12.942,8.552-18.4,17.7-18.391q91.376.139,182.753.08c4.135,0,8.35-.166,11.721,3.777,1.469,1.718,3.147,3.5,3.971,5.734a42.828,42.828,0,0,1,.169,29.1c-2.4,6.961-7.347,10.161-13.157,10.171q-46.918.094-93.837.03v.065" transform="translate(-4902 10245.311)"/>
        <path id="Path_583_-_Outline" data-name="Path 583 - Outline" d="M132.267,443.289a18.9,18.9,0,0,1-14.531-6.628c-7.025-7.971-8.287-20.6-7.125-29.751,1.836-14.466,10.088-22.762,22.641-22.762q64.184.1,128.319.1l54.454-.018c4.643,0,10.8,0,15.525,5.528,1.962,2.271,3.814,4.413,4.862,7.253a47.6,47.6,0,0,1,.178,32.535c-2.934,8.516-9.45,13.452-17.849,13.466q-27.92.056-55.845.056l-33.25-.023-4.751.062q-13.38,0-26.76-.067c-21.824-.082-43.647-.165-65.466.247Zm1-49.141c-2.721,0-10.956,0-12.735,14.02-1.1,8.648.795,17.441,4.707,21.881a8.93,8.93,0,0,0,7.028,3.239v5l.213-5c21.893-.413,43.792-.331,65.691-.249q10.861.041,21.723.064v0l5.007-.058,37.994.026q27.913,0,55.826-.056c4.048-.007,6.887-2.295,8.44-6.8a38.054,38.054,0,0,0-.12-25.706,13.7,13.7,0,0,0-2.582-3.656c-2.08-2.429-3.835-2.62-7.467-2.62l-55.421.019Q197.423,394.246,133.266,394.148Z" transform="translate(-4902 10245.311)"/>
        <path id="Path_584" data-name="Path 584" d="M276.213,318.03c-45.093,0-90.186-.2-135.28.123-12.981.091-25.6-9.546-24.851-20.276.383-5.51.383-11.325,2.6-16.4,3.3-7.537,10.59-11.451,20.934-11.459q133.719-.092,267.438-.495c11.74-.042,22.221,1.888,26.968,11.3,5.869,11.633,5.4,32.372-15.4,36.593A33.3,33.3,0,0,1,412.1,318q-67.944.049-135.887.025" transform="translate(-4902 10225)"/>
        <path id="Path_584_-_Outline" data-name="Path 584 - Outline" d="M140.758,323.154a33.171,33.171,0,0,1-23.539-9.954c-4.331-4.609-6.506-10.174-6.124-15.669l.152-2.449c.288-4.911.613-10.478,2.859-15.609,4.079-9.312,13.138-14.445,25.51-14.455q133.714-.092,267.427-.495c11.323-.038,25.128,1.52,31.448,14.048,3.558,7.053,5.931,18.966.9,29.326-2.555,5.266-8.06,12.042-19.778,14.419a38.5,38.5,0,0,1-7.565.684q-67.87.049-135.839.025v.005L238.784,323c-32.6-.04-65.21-.08-97.815.153Zm266.649-48.631h-.332q-133.729.4-267.452.495c-8.4.007-13.9,2.855-16.357,8.465-1.527,3.491-1.775,7.713-2.036,12.183l-.159,2.557c-.239,3.441,1.737,6.319,3.436,8.128a23.215,23.215,0,0,0,16.392,6.8c32.632-.234,65.265-.194,97.9-.154l37.415.031v-.005q67.941.024,135.882-.025a28.482,28.482,0,0,0,5.593-.5c6.132-1.244,10.428-4.267,12.711-8.972,3.212-6.621,1.895-15.046-.836-20.457C426.542,277.088,419.908,274.522,407.407,274.522Z" transform="translate(-4902 10225)"/>
        <path id="Path_586" data-name="Path 586" d="M604.583,523.422c0,17.795.051,35.59-.016,53.384-.057,15.3-10.4,23.686-26.587,23.9-14.4.194-24.38-9.847-24.382-24.128q-.008-53.387,0-106.771c.005-13.078,8.977-22.026,22.1-21.863,4.76.059,9.719-.139,14.227,1.094,9.2,2.516,14.587,10.414,14.6,20q.051,27.19.01,54.382Z" transform="translate(-4926 10206)"/>
        <path id="Path_586_-_Outline" data-name="Path 586 - Outline" d="M575.346,442.942l2.562.017c4.365.018,8.878.037,13.336,1.256,11.086,3.032,18.263,12.772,18.286,24.813q.047,25.127.016,50.255l.037,4.138.009,16.109q.016,18.647-.025,37.294c-.065,17.558-12.144,28.625-31.521,28.881h-.007c-17.258,0-29.439-12.25-29.441-29.127V469.806C548.6,453.988,559.6,442.942,575.346,442.942Zm24.24,85.251h-.01l-.036-4.78q.041-27.183-.01-54.365c-.014-7.643-4.1-13.32-10.924-15.187-3.183-.871-6.854-.886-10.739-.9l-2.231-.015-.29-5v5c-10.17,0-16.744,6.621-16.748,16.867V576.577c0,11.443,7.626,19.131,18.973,19.131,8.4-.109,21.936-2.709,22-18.921q.07-18.623.025-37.248Z" transform="translate(-4926 10206)"/>
        <path id="Path_587" data-name="Path 587" d="M579.647,689.623c-17.962-.232-30.653-13.754-30.861-30.636-.224-18.154,13.815-29.916,25.929-30.243,22.31-.6,35.634,10.665,35.787,29.469.145,17.72-13.172,31.276-30.855,31.41" transform="translate(-4926 10206)"/>
        <path id="Path_587_-_Outline" data-name="Path 587 - Outline" d="M579.634,694.623h-.051c-20.16-.26-35.549-15.554-35.8-35.574-.254-20.613,15.717-34.9,30.794-35.3l1.818-.025c23.947,0,38.931,13.2,39.1,34.451a35.5,35.5,0,0,1-35.817,36.451Zm-3.236-60.9-1.548.021c-8.733.236-21.259,9.339-21.064,25.183.181,14.682,11.06,25.481,25.875,25.7A25.5,25.5,0,0,0,605.5,658.254C605.375,642.663,594.767,633.721,576.4,633.721Z" transform="translate(-4926 10206)"/>
    </g>
</svg>