<svg width="36" height="36" viewBox="0 0 59 59" fill="none" xmlns="http://www.w3.org/2000/svg">
    <path d="M0 2.20875C0 0.988893 0.988892 0 2.20875 0H56.7912C58.0111 0 59 0.988892 59 2.20875V56.7912C59 58.0111 58.0111 59 56.7912 59H2.20875C0.988893 59 0 58.0111 0 56.7912V2.20875Z" fill="#1A136A"/>
    <path d="M7.69565 42.9118V16.7973H17.5091L17.7911 18.8909C18.9566 18.1196 20.2538 17.4952 21.6826 17.0177C23.1489 16.5035 24.7469 16.2464 26.4765 16.2464C28.2061 16.2464 29.5596 16.4851 30.5372 16.9626C31.5148 17.4401 32.3044 18.1379 32.906 19.0562C34.1091 18.2114 35.4627 17.5319 36.9667 17.0177C38.5082 16.5035 40.313 16.2464 42.381 16.2464C45.5017 16.2464 47.7953 17.0544 49.2616 18.6705C50.728 20.2499 51.4612 22.674 51.4612 25.9429V42.9118H41.0274V27.155C41.0274 25.9796 40.783 25.1532 40.2942 24.6757C39.8054 24.1615 38.997 23.9044 37.8691 23.9044C36.4027 23.9044 35.1995 24.4186 34.2595 25.4471C34.3347 25.9245 34.3723 26.3836 34.3723 26.8244C34.3723 27.2284 34.3723 27.6875 34.3723 28.2017V42.9118H24.5589V26.9897C24.5589 25.9245 24.3709 25.1532 23.9949 24.6757C23.6189 24.1615 22.9046 23.9044 21.8518 23.9044C21.1374 23.9044 20.4418 24.0881 19.765 24.4554C19.0882 24.8227 18.4866 25.2634 17.9603 25.7776V42.9118H7.69565Z" fill="white"/>
</svg>
