<svg width="211" height="60" viewBox="0 0 211 60" fill="none" xmlns="http://www.w3.org/2000/svg">
    <path d="M0 32.2603V0.666535H12.0244L12.3699 3.19937C13.7981 2.26622 15.3876 1.51081 17.1382 0.933149C18.935 0.31105 20.893 0 23.0122 0C25.1315 0 26.79 0.288832 27.9879 0.866497C29.1857 1.44416 30.1532 2.28844 30.8903 3.39933C32.3646 2.37731 34.0231 1.55525 35.8659 0.933149C37.7548 0.31105 39.9662 0 42.5001 0C46.3239 0 49.1342 0.977585 50.931 2.93276C52.7277 4.84349 53.6261 7.77625 53.6261 11.731V32.2603H40.8415V13.1974C40.8415 11.7755 40.5421 10.7757 39.9432 10.198C39.3442 9.57589 38.3537 9.26484 36.9716 9.26484C35.1749 9.26484 33.7006 9.88694 32.5488 11.1311C32.641 11.7088 32.687 12.2642 32.687 12.7975C32.687 13.2863 32.687 13.8417 32.687 14.4638V32.2603H20.6626V12.9974C20.6626 11.7088 20.4323 10.7757 19.9716 10.198C19.5109 9.57589 18.6355 9.26484 17.3456 9.26484C16.4702 9.26484 15.6179 9.48702 14.7886 9.93138C13.9594 10.3757 13.2222 10.909 12.5773 11.5311V32.2603H0Z" fill="white"/>
    <path d="M76.8781 32.9268C70.336 32.9268 65.4986 31.5271 62.3658 28.7277C59.2791 25.9282 57.7357 21.8401 57.7357 16.4634C57.7357 11.1311 59.3021 7.06527 62.4349 4.26583C65.5677 1.42194 70.3821 0 76.8781 0C83.4201 0 88.2575 1.42194 91.3903 4.26583C94.5691 7.06527 96.1586 11.1311 96.1586 16.4634C96.1586 21.8401 94.5922 25.9282 91.4594 28.7277C88.3266 31.5271 83.4661 32.9268 76.8781 32.9268ZM76.8781 23.7953C78.9973 23.7953 80.5176 23.2176 81.439 22.0623C82.4065 20.907 82.8903 19.0407 82.8903 16.4634C82.8903 13.9306 82.4065 12.0865 81.439 10.9312C80.5176 9.73142 78.9973 9.13153 76.8781 9.13153C74.8049 9.13153 73.3076 9.73142 72.3862 10.9312C71.4648 12.0865 71.0041 13.9306 71.0041 16.4634C71.0041 19.0407 71.4648 20.907 72.3862 22.0623C73.3076 23.2176 74.8049 23.7953 76.8781 23.7953Z" fill="white"/>
    <path d="M108.788 32.2603L95.8654 0.666535H109.41L115.63 19.1962L121.849 0.666535H135.394L122.471 32.2603H108.788Z" fill="white"/>
    <path d="M150.022 32.2603L137.099 0.666535H150.644L156.864 19.1962L163.083 0.666535H176.628L163.705 32.2603H150.022Z" fill="white"/>
    <path d="M195.728 32.9268C191.904 32.9268 188.518 32.327 185.569 31.1272C182.667 29.883 180.386 28.0389 178.728 25.595C177.115 23.151 176.309 20.1294 176.309 16.5301C176.309 11.5088 177.783 7.50963 180.732 4.53244C183.68 1.51081 188.08 0 193.931 0C199.275 0 203.444 1.31085 206.439 3.93256C209.48 6.55426 211 10.1313 211 14.6638V20.196H188.264C188.863 21.8846 190.038 23.0843 191.789 23.7953C193.539 24.5063 195.912 24.8618 198.906 24.8618C200.795 24.8618 202.684 24.7062 204.573 24.3952C206.508 24.0397 208.051 23.6398 209.203 23.1954V30.7273C205.978 32.1937 201.486 32.9268 195.728 32.9268ZM188.264 13.3974H199.805V12.2643C199.805 11.0201 199.39 9.99803 198.561 9.19819C197.778 8.39835 196.373 7.99842 194.346 7.99842C192.088 7.99842 190.499 8.465 189.577 9.39815C188.702 10.2869 188.264 11.6199 188.264 13.3974Z" fill="white"/>
    <path d="M0 55.9093V40.9412H6.05918C8.30332 40.9412 9.94635 41.53 10.9883 42.7076C12.0302 43.8852 12.5512 45.8221 12.5512 48.5182C12.5512 51.0749 12.0382 52.9498 11.0123 54.1429C10.0024 55.3205 8.3514 55.9093 6.05918 55.9093H0ZM1.97164 54.4218H5.69851C6.78852 54.4218 7.69419 54.2669 8.41552 53.957C9.13685 53.6316 9.67384 53.0427 10.0265 52.1905C10.3952 51.3383 10.5795 50.1142 10.5795 48.5182C10.5795 46.9377 10.4112 45.7059 10.0746 44.8227C9.75399 43.9394 9.23303 43.3274 8.5117 42.9865C7.8064 42.6301 6.86867 42.4519 5.69851 42.4519H1.97164V54.4218Z" fill="white"/>
    <path d="M15.8984 42.3125V40.5693H18.0864V42.3125H15.8984ZM16.0907 55.9093V46.4031H14.3355L14.5279 44.8924H18.0624V55.9093H16.0907Z" fill="white"/>
    <path d="M25.8856 60C25.0361 60 24.2025 59.9535 23.385 59.8605C22.5835 59.7676 21.8943 59.6204 21.3172 59.4189V57.8384C21.9584 58.0399 22.6797 58.1948 23.4812 58.3033C24.2827 58.4118 25.0521 58.466 25.7894 58.466C26.9917 58.466 27.8733 58.3963 28.4343 58.2568C28.9954 58.1174 29.2759 57.761 29.2759 57.1877C29.2759 56.7848 29.1236 56.4981 28.819 56.3277C28.5305 56.1572 28.0095 56.072 27.2561 56.072H24.2266C22.1267 56.072 21.0768 55.3902 21.0768 54.0267C21.0768 53.5773 21.221 53.1512 21.5095 52.7483C21.8141 52.33 22.2629 52.0356 22.856 51.8651C22.2149 51.5552 21.742 51.1291 21.4374 50.5868C21.1329 50.029 20.9806 49.3704 20.9806 48.6112C20.9806 47.2321 21.3893 46.2327 22.2068 45.6129C23.0404 44.9776 24.3067 44.66 26.0058 44.66C26.3585 44.66 26.7192 44.691 27.0878 44.7529C27.4725 44.7994 27.7691 44.8459 27.9775 44.8924H32.0891L32.0169 46.194H29.9491C30.3178 46.4884 30.5823 46.8448 30.7426 47.2631C30.9029 47.666 30.983 48.1153 30.983 48.6112C30.983 49.8353 30.6143 50.7882 29.877 51.47C29.1396 52.1363 28.0095 52.4694 26.4867 52.4694C26.2303 52.4694 25.9978 52.4617 25.7894 52.4462C25.5971 52.4152 25.3647 52.3842 25.0922 52.3532C24.5952 52.3687 24.1304 52.5082 23.6976 52.7716C23.2648 53.0195 23.0484 53.3449 23.0484 53.7478C23.0484 54.0112 23.1526 54.2049 23.361 54.3288C23.5854 54.4528 23.9861 54.5148 24.5632 54.5148H27.713C28.8511 54.5148 29.7247 54.7394 30.3338 55.1888C30.9429 55.6227 31.2475 56.2657 31.2475 57.1179C31.2475 58.2026 30.7827 58.9541 29.8529 59.3725C28.9232 59.7908 27.6008 60 25.8856 60ZM26.0058 51.0284C27.1439 51.0284 27.9294 50.8502 28.3622 50.4938C28.795 50.1374 29.0114 49.5099 29.0114 48.6112C29.0114 47.7125 28.779 47.0617 28.3141 46.6588C27.8653 46.2559 27.0959 46.0545 26.0058 46.0545C24.9319 46.0545 24.1544 46.2482 23.6735 46.6356C23.1927 47.0229 22.9522 47.6815 22.9522 48.6112C22.9522 49.4634 23.1766 50.0832 23.6255 50.4706C24.0903 50.8425 24.8838 51.0284 26.0058 51.0284Z" fill="white"/>
    <path d="M34.3778 42.3125V40.5693H36.5658V42.3125H34.3778ZM34.5701 55.9093V46.4031H32.8149L33.0073 44.8924H36.5418V55.9093H34.5701Z" fill="white"/>
    <path d="M44.1005 56.1417C42.9785 56.1417 42.1289 55.8551 41.5518 55.2818C40.9908 54.693 40.7103 53.8795 40.7103 52.8413V46.4031H38.9791V44.8924H40.7103V42.173L42.6819 41.592V44.8924H45.8317L45.7115 46.4031H42.6819V52.7483C42.6819 53.4146 42.8342 53.895 43.1388 54.1894C43.4593 54.4683 44.0044 54.6077 44.7738 54.6077C45.1905 54.6077 45.6474 54.5303 46.1443 54.3753V55.8163C45.5512 56.0333 44.8699 56.1417 44.1005 56.1417Z" fill="white"/>
    <path d="M51.952 56.1417C51.2306 56.1417 50.5654 56.0178 49.9563 55.7699C49.3471 55.5219 48.8582 55.1578 48.4896 54.6775C48.1209 54.1816 47.9365 53.5618 47.9365 52.8181C47.9365 51.8109 48.2812 50.9897 48.9704 50.3544C49.6597 49.7036 50.7818 49.3782 52.3367 49.3782H56.304V48.7042C56.304 48.0998 56.2158 47.6195 56.0395 47.2631C55.8792 46.9067 55.5666 46.6511 55.1018 46.4961C54.6369 46.3412 53.9556 46.2637 53.058 46.2637C52.3687 46.2637 51.7035 46.3179 51.0623 46.4264C50.4211 46.5349 49.82 46.6821 49.259 46.868V45.2875C49.7719 45.1016 50.373 44.9544 51.0623 44.8459C51.7676 44.7219 52.521 44.66 53.3225 44.66C54.9415 44.66 56.1517 44.9776 56.9532 45.6129C57.7707 46.2482 58.1794 47.2786 58.1794 48.7042V55.9093H56.5204L56.3761 54.6542C55.8792 55.1501 55.2781 55.5219 54.5728 55.7699C53.8675 56.0178 52.9939 56.1417 51.952 56.1417ZM52.4569 54.5845C53.2904 54.5845 54.0278 54.445 54.669 54.1661C55.3101 53.8717 55.8551 53.4766 56.304 52.9808V50.8425H52.3847C51.4871 50.8425 50.8459 51.0052 50.4612 51.3306C50.0765 51.6559 49.8841 52.1518 49.8841 52.8181C49.8841 53.4844 50.1166 53.9492 50.5814 54.2126C51.0463 54.4605 51.6714 54.5845 52.4569 54.5845Z" fill="white"/>
    <path d="M63.9024 56.1417C63.1329 56.1417 62.5238 55.9481 62.075 55.5607C61.6422 55.1578 61.4258 54.4838 61.4258 53.5386V40.2439H63.3974V53.3294C63.3974 53.7943 63.4776 54.1119 63.6379 54.2823C63.7982 54.4528 64.0466 54.538 64.3832 54.538C64.7519 54.538 65.1126 54.4915 65.4652 54.3986V55.9093C65.2088 56.0023 64.9523 56.0643 64.6958 56.0953C64.4394 56.1263 64.1749 56.1417 63.9024 56.1417Z" fill="white"/>
    <path d="M72.8027 55.9093L78.6936 40.9412H81.0018L86.8687 55.9093H84.8489L83.2139 51.7954H76.4815L74.8465 55.9093H72.8027ZM76.8181 50.2846H82.8533L79.8237 42.5914L76.8181 50.2846Z" fill="white"/>
    <path d="M94.1678 60C93.3182 60 92.4847 59.9535 91.6672 59.8605C90.8657 59.7676 90.1764 59.6204 89.5994 59.4189V57.8384C90.2406 58.0399 90.9619 58.1948 91.7634 58.3033C92.5649 58.4118 93.3343 58.466 94.0716 58.466C95.2739 58.466 96.1555 58.3963 96.7165 58.2568C97.2776 58.1174 97.5581 57.761 97.5581 57.1877C97.5581 56.7848 97.4058 56.4981 97.1012 56.3277C96.8127 56.1572 96.2917 56.072 95.5383 56.072H92.5088C90.4089 56.072 89.3589 55.3902 89.3589 54.0267C89.3589 53.5773 89.5032 53.1512 89.7917 52.7483C90.0963 52.33 90.5451 52.0356 91.1382 51.8651C90.497 51.5552 90.0242 51.1291 89.7196 50.5868C89.415 50.029 89.2628 49.3704 89.2628 48.6112C89.2628 47.2321 89.6715 46.2327 90.489 45.6129C91.3226 44.9776 92.5889 44.66 94.288 44.66C94.6407 44.66 95.0013 44.691 95.37 44.7529C95.7547 44.7994 96.0513 44.8459 96.2597 44.8924H100.371L100.299 46.194H98.2313C98.6 46.4884 98.8645 46.8448 99.0248 47.2631C99.1851 47.666 99.2652 48.1153 99.2652 48.6112C99.2652 49.8353 98.8965 50.7882 98.1592 51.47C97.4218 52.1363 96.2917 52.4694 94.7689 52.4694C94.5125 52.4694 94.28 52.4617 94.0716 52.4462C93.8793 52.4152 93.6468 52.3842 93.3743 52.3532C92.8774 52.3687 92.4126 52.5082 91.9798 52.7716C91.547 53.0195 91.3306 53.3449 91.3306 53.7478C91.3306 54.0112 91.4348 54.2049 91.6432 54.3288C91.8676 54.4528 92.2683 54.5148 92.8454 54.5148H95.9952C97.1333 54.5148 98.0069 54.7394 98.616 55.1888C99.2251 55.6227 99.5297 56.2657 99.5297 57.1179C99.5297 58.2026 99.0648 58.9541 98.1351 59.3725C97.2054 59.7908 95.883 60 94.1678 60ZM94.288 51.0284C95.4261 51.0284 96.2116 50.8502 96.6444 50.4938C97.0772 50.1374 97.2936 49.5099 97.2936 48.6112C97.2936 47.7125 97.0611 47.0617 96.5963 46.6588C96.1475 46.2559 95.378 46.0545 94.288 46.0545C93.2141 46.0545 92.4366 46.2482 91.9557 46.6356C91.4748 47.0229 91.2344 47.6815 91.2344 48.6112C91.2344 49.4634 91.4588 50.0832 91.9076 50.4706C92.3725 50.8425 93.166 51.0284 94.288 51.0284Z" fill="white"/>
    <path d="M108.026 56.1417C105.99 56.1417 104.467 55.6692 103.457 54.724C102.447 53.7788 101.942 52.3222 101.942 50.3544C101.942 48.5879 102.375 47.2011 103.241 46.194C104.122 45.1713 105.509 44.66 107.4 44.66C108.523 44.66 109.444 44.8614 110.166 45.2643C110.903 45.6516 111.448 46.194 111.801 46.8912C112.169 47.573 112.354 48.3478 112.354 49.2155V51.2841H103.914C103.978 52.1208 104.162 52.7793 104.467 53.2597C104.788 53.74 105.261 54.0887 105.886 54.3056C106.527 54.507 107.368 54.6077 108.41 54.6077C109.58 54.6077 110.654 54.4141 111.632 54.0267V55.5142C111.135 55.7156 110.574 55.8706 109.949 55.979C109.34 56.0875 108.699 56.1417 108.026 56.1417ZM103.914 49.9128H110.598V49.0063C110.598 48.1076 110.35 47.4181 109.853 46.9377C109.372 46.4419 108.571 46.194 107.449 46.194C106.086 46.194 105.156 46.5039 104.659 47.1237C104.163 47.7435 103.914 48.6732 103.914 49.9128Z" fill="white"/>
    <path d="M115.244 55.9093V44.8924H117.023L117.143 46.1475C117.688 45.7136 118.321 45.3572 119.043 45.0783C119.78 44.7994 120.622 44.66 121.567 44.66C123.01 44.66 124.06 44.9854 124.717 45.6361C125.374 46.2869 125.703 47.3096 125.703 48.7042V55.9093H123.731V48.7739C123.731 47.8132 123.531 47.1469 123.13 46.775C122.73 46.3877 121.96 46.194 120.822 46.194C120.117 46.194 119.452 46.3179 118.826 46.5658C118.201 46.8138 117.664 47.1547 117.215 47.5885V55.9093H115.244Z" fill="white"/>
    <path d="M133.967 56.1417C131.979 56.1417 130.504 55.6459 129.543 54.6542C128.581 53.6471 128.1 52.2293 128.1 50.4009C128.1 48.464 128.645 47.0229 129.735 46.0778C130.825 45.1326 132.292 44.66 134.135 44.66C134.889 44.66 135.514 44.7142 136.011 44.8227C136.508 44.9156 136.988 45.0706 137.453 45.2875V46.7983C136.588 46.3954 135.602 46.194 134.496 46.194C133.085 46.194 131.995 46.5194 131.226 47.1701C130.456 47.8054 130.072 48.8823 130.072 50.4009C130.072 51.8574 130.408 52.9265 131.082 53.6083C131.755 54.2746 132.869 54.6077 134.424 54.6077C135.53 54.6077 136.548 54.4063 137.477 54.0034V55.5374C136.98 55.7389 136.443 55.8861 135.866 55.979C135.305 56.0875 134.672 56.1417 133.967 56.1417Z" fill="white"/>
    <path d="M141.217 60C140.463 60 139.806 59.8993 139.245 59.6978V58.1638C139.518 58.2568 139.766 58.3188 139.991 58.3498C140.231 58.3808 140.471 58.3963 140.712 58.3963C141.257 58.3963 141.682 58.3033 141.986 58.1174C142.307 57.9314 142.587 57.6448 142.828 57.2574C143.068 56.8855 143.333 56.3974 143.621 55.7931L138.596 44.8924H140.64L144.607 53.771L148.695 44.8924H150.714L145.929 55.4212C145.529 56.3044 145.12 57.0869 144.703 57.7687C144.286 58.466 143.806 59.0083 143.261 59.3957C142.716 59.7986 142.034 60 141.217 60Z" fill="white"/>
</svg>
