<svg width="23" height="15" viewBox="0 0 23 15" fill="none" xmlns="http://www.w3.org/2000/svg">
<path d="M22.0174 2.38281C21.7761 1.44531 21.0119 0.703125 20.0868 0.46875C18.3574 0 11.5201 0 11.5201 0C11.5201 0 4.6426 0 2.91316 0.46875C1.98812 0.703125 1.22395 1.44531 0.982633 2.38281C0.5 4.02344 0.5 7.53906 0.5 7.53906C0.5 7.53906 0.5 11.0156 0.982633 12.6953C1.22395 13.6328 1.98812 14.3359 2.91316 14.5703C4.6426 15 11.5201 15 11.5201 15C11.5201 15 18.3574 15 20.0868 14.5703C21.0119 14.3359 21.7761 13.6328 22.0174 12.6953C22.5 11.0156 22.5 7.53906 22.5 7.53906C22.5 7.53906 22.5 4.02344 22.0174 2.38281ZM9.26782 10.7031V4.375L14.979 7.53906L9.26782 10.7031Z" fill="white"/>
</svg>
